<svg xmlns="http://www.w3.org/2000/svg" xmlns:xlink="http://www.w3.org/1999/xlink" width="55" height="68" viewBox="0 0 55 68"><defs><path id="mcy9a" d="M1374.04 6495.5c1.2 0 2.14 1.1 2.14 2.45v11.08c0 1.36-.94 2.45-2.14 2.45h-.22v26.85c0 1.37-.94 2.47-2.16 2.47h-43.1c-1.18 0-2.14-1.1-2.14-2.47v-26.85h-.22c-1.19 0-2.16-1.1-2.16-2.45v-11.08c0-1.36.97-2.45 2.16-2.45zm-19.79 15.98h-8.28v24.43h8.28zm-10.84 0h-12.7v24.43h12.7zm13.42 24.43h12.71v-24.43h-12.7zm-3.76-54.2a8.76 8.76 0 0 1 1.85-3.4 7.11 7.11 0 0 1 5.37-2.57c2.1 0 4.03.99 5.4 2.57a9.33 9.33 0 0 1 2.23 6.19c0 2.38-.85 4.58-2.23 6.15a7.12 7.12 0 0 1-5.4 2.53h-20.35c-2.1 0-4-.95-5.37-2.53a9.28 9.28 0 0 1-2.25-6.15c0-2.44.85-4.63 2.25-6.19a7.11 7.11 0 0 1 5.37-2.57c2.1 0 4.03.99 5.38 2.57.87.97 1.5 2.17 1.9 3.53a5.07 5.07 0 0 1 3-1.03c1.03 0 2.02.35 2.85.9zm-2.85 2.02c-.79 0-1.49.38-2.03.96a3.65 3.65 0 0 0 .01 4.62c.53.6 1.23.96 2.02.96.76 0 1.46-.32 1.96-.89l.06-.07c.53-.57.83-1.4.83-2.28 0-.93-.3-1.77-.83-2.34a2.7 2.7 0 0 0-2.02-.96zm5.4 3.3a6.7 6.7 0 0 1-.8 3.24h5.47c1.4 0 2.67-.65 3.58-1.7a6.2 6.2 0 0 0 1.49-4.07c0-1.6-.58-3.08-1.49-4.1a4.71 4.71 0 0 0-3.58-1.7c-1.4 0-2.65.64-3.58 1.7a6.2 6.2 0 0 0-1.45 4.1l-.04.15c.26.75.4 1.51.4 2.38zm-10.8 0c0-.7.1-1.4.27-2.01-.06-.18-.1-.35-.1-.52 0-1.6-.56-3.08-1.47-4.1a4.71 4.71 0 0 0-3.58-1.7c-1.4 0-2.66.64-3.58 1.7a6.2 6.2 0 0 0-1.46 4.1c0 1.56.55 3.04 1.46 4.06a4.73 4.73 0 0 0 3.58 1.7h5.69c-.5-.95-.8-2.08-.8-3.23zm-16.5 13.38v6.2h43.59v-6.2z"/><path id="mcy9b" d="M1323 6543v-70h55v70zm3.2-46.5c-1.19 0-2.16 1.1-2.16 2.45v11.08c0 1.36.97 2.45 2.16 2.45h.22v26.85c0 1.37.96 2.47 2.14 2.47h43.1c1.22 0 2.16-1.1 2.16-2.47v-26.85h.22c1.2 0 2.14-1.1 2.14-2.45v-11.08c0-1.36-.94-2.45-2.14-2.45zm28.05 40.41h-8.28v-24.43h8.28zm-10.84 0h-12.7v-24.43h12.7zm13.42-24.43h12.71v24.43h-12.7zm-3.76-29.76a5.17 5.17 0 0 0-2.85-.9c-1.1 0-2.12.37-3 1.02a9.09 9.09 0 0 0-1.9-3.53 7.1 7.1 0 0 0-5.38-2.57c-2.1 0-4 .99-5.37 2.57a9.27 9.27 0 0 0-2.25 6.19c0 2.38.85 4.58 2.25 6.15a7.08 7.08 0 0 0 5.37 2.53h20.35c2.1 0 4.03-.95 5.4-2.53a9.34 9.34 0 0 0 2.23-6.15c0-2.44-.85-4.63-2.23-6.19a7.15 7.15 0 0 0-5.4-2.57c-2.1 0-4 .99-5.37 2.57a8.76 8.76 0 0 0-1.85 3.4zm-2.85 2.01c.79 0 1.52.38 2.02.96.53.57.83 1.4.83 2.34 0 .87-.3 1.7-.83 2.28l-.06.07c-.5.57-1.2.89-1.96.89-.79 0-1.49-.35-2.02-.96a3.65 3.65 0 0 1-.02-4.62 2.82 2.82 0 0 1 2.04-.96zm5.4 3.3c0-.87-.14-1.63-.4-2.38l.04-.15c0-1.6.54-3.08 1.45-4.1a4.73 4.73 0 0 1 3.58-1.7c1.4 0 2.67.64 3.58 1.7a6.22 6.22 0 0 1 1.49 4.1 6.2 6.2 0 0 1-1.49 4.06 4.71 4.71 0 0 1-3.58 1.7h-5.47c.53-.95.8-2.08.8-3.23zm-10.8 0c0 1.15.3 2.28.8 3.24h-5.68c-1.4 0-2.66-.65-3.58-1.7a6.18 6.18 0 0 1-1.46-4.07c0-1.6.55-3.08 1.46-4.1a4.73 4.73 0 0 1 3.58-1.7c1.4 0 2.67.64 3.58 1.7a6.21 6.21 0 0 1 1.47 4.1c0 .17.04.34.1.52-.18.6-.27 1.3-.27 2.01zm27.09 13.38v6.2h-43.59v-6.2z"/><filter id="mcy9c" width="200%" height="200%" x="-50%" y="-50%"><feGaussianBlur in="SourceGraphic" result="FeGaussianBlur1053Out" stdDeviation="0.5 0.5"/></filter><mask id="mcy9d"><use fill="#fff" xlink:href="#mcy9a"/></mask></defs><g><g transform="translate(-1323 -6474)"><use fill="currentColor" xlink:href="#mcy9a"/><use fill-opacity=".35" stroke="#000" stroke-opacity=".35" stroke-width="0" filter="url(#mcy9c)" mask="url(&quot;#mcy9d&quot;)" xlink:href="#mcy9b"/></g></g></svg>
