<svg xmlns="http://www.w3.org/2000/svg" xmlns:xlink="http://www.w3.org/1999/xlink" width="21" height="21" viewBox="0 0 21 21"><defs><path id="u4xda" d="M1316.2 402.35c.4 0 .73.31.73.7 0 .4-.32.72-.72.72a.72.72 0 0 1-.73-.71c0-.4.32-.71.73-.71zm4.61 2.88c.4 0 .73.32.73.71 0 .4-.33.71-.73.71a.72.72 0 0 1-.72-.7c0-.4.32-.72.72-.72zm5.62 1.83l-.39.21c-.42.23-.65.7-.56 1.17l.08.43c.13.65-.36 1.26-1.04 1.3l-.45.03c-.48.02-.9.35-1.02.8l-.12.43c-.18.64-.89.99-1.52.73l-.41-.16a1.15 1.15 0 0 0-1.29.3l-.29.32c-.44.5-1.23.5-1.69.01l-.3-.32a1.14 1.14 0 0 0-1.28-.28l-.41.17a1.13 1.13 0 0 1-1.53-.7l-.13-.42a1.13 1.13 0 0 0-1.04-.8l-.44-.02a1.11 1.11 0 0 1-1.07-1.29l.08-.43a1.1 1.1 0 0 0-.58-1.16l-.4-.2a1.1 1.1 0 0 1-.38-1.62l.25-.35c.28-.4.28-.91 0-1.3l-.27-.35a1.1 1.1 0 0 1 .36-1.62l.39-.21c.42-.23.65-.7.56-1.17l-.08-.43a1.11 1.11 0 0 1 1.04-1.3l.45-.03c.48-.02.9-.35 1.02-.8l.12-.43c.18-.64.9-.99 1.52-.73l.41.16c.45.19.97.07 1.29-.3l.29-.32c.45-.5 1.24-.5 1.7-.01l.29.32c.32.36.84.47 1.28.28l.41-.17c.63-.27 1.35.07 1.53.7l.13.42c.13.46.55.78 1.04.8l.44.02c.68.03 1.18.63 1.07 1.29l-.08.43c-.08.47.16.93.58 1.16l.4.2c.6.32.78 1.08.39 1.62l-.26.35c-.28.4-.27.91.01 1.3l.26.35c.4.54.23 1.3-.36 1.62zm-10.23-2.29c.97 0 1.75-.77 1.75-1.71 0-.95-.78-1.72-1.75-1.72s-1.75.77-1.75 1.72c0 .94.78 1.71 1.75 1.71zm4.93-2.71a.41.41 0 0 0-.06-.59.43.43 0 0 0-.6.06l-4.59 5.41a.41.41 0 0 0 .06.6c.18.14.45.11.6-.06zm1.43 3.88c0-.95-.78-1.71-1.75-1.71-.96 0-1.75.76-1.75 1.71s.79 1.71 1.75 1.71c.97 0 1.75-.76 1.75-1.7z"/></defs><g><g transform="translate(-1308 -394)"><use fill="currentColor" xlink:href="#u4xda"/></g></g></svg>