<svg xmlns="http://www.w3.org/2000/svg" xmlns:xlink="http://www.w3.org/1999/xlink" width="49" height="49" viewBox="0 0 49 49"><defs><path id="8m6aa" d="M946.46 6496.85l10.22-7.03a3.77 3.77 0 0 1 1-3.76 4.1 4.1 0 0 1 5.57 0 3.72 3.72 0 0 1 1 3.76l10.22 7.03h6.8c.94 0 1.74.74 1.74 1.67v30.83c0 .9-.8 1.64-1.74 1.64h-41.6a1.7 1.7 0 0 1-1.73-1.64v-30.83c0-.93.78-1.67 1.73-1.67zm12.58 10.77c0 3.16-2.72 5.77-6.05 5.77-3.31 0-6.04-2.6-6.04-5.77a5.94 5.94 0 0 1 6.04-5.78c3.33 0 6.05 2.6 6.05 5.78zm8.12 6.8l-8.41 8.04 1.75 1.66c.39.38.39 1 0 1.4-.42.4-1.09.4-1.48 0l-2.4-2.31-.03-.01-.03-.02-.02-.02h-.01l-.03-.02-.01-.02-6.15-5.9-8.92 8.55v1.9h38.11v-1.41zm-17.55.68c.4-.37 1.07-.37 1.47 0l6.22 5.95 9.12-8.75c.4-.39 1.07-.39 1.47 0l11.64 11.15v-23.3h-38.11v22.81zm-.57-7.48a3.87 3.87 0 0 0 3.95 3.77c2.2 0 3.97-1.69 3.97-3.77a3.88 3.88 0 0 0-3.97-3.8 3.87 3.87 0 0 0-3.95 3.8zm21.9-10.77l-7.79-5.34a4.17 4.17 0 0 1-5.36 0l-7.78 5.34zm-10.47-9.87c-.52 0-.98.17-1.33.49-.32.35-.54.77-.54 1.27 0 .32.1.62.25.88l.01.01v.01h.01v.03c.08.13.17.23.27.32.35.35.81.52 1.33.52.5 0 .98-.17 1.32-.52.1-.09.2-.2.28-.32v-.03h.01v-.02c.16-.26.26-.56.26-.88 0-.5-.22-.92-.55-1.27a1.9 1.9 0 0 0-1.32-.5z"/><path id="8m6ab" d="M936 6533v-51h49v51zm3.67-35.15a1.7 1.7 0 0 0-1.73 1.67v30.83c0 .9.78 1.64 1.73 1.64h41.6c.94 0 1.74-.74 1.74-1.64v-30.83c0-.93-.8-1.67-1.74-1.67h-6.8l-10.23-7.03a3.72 3.72 0 0 0-1-3.76 4.1 4.1 0 0 0-5.57 0 3.77 3.77 0 0 0-.99 3.76l-10.22 7.03zm13.32 4.99a5.94 5.94 0 0 0-6.04 5.78c0 3.16 2.73 5.77 6.04 5.77 3.33 0 6.05-2.6 6.05-5.77 0-3.17-2.72-5.78-6.05-5.78zm26.54 24.42v1.42h-38.11v-1.9l8.92-8.55 6.15 5.89.01.02.03.01v.01l.03.02.03.02.02.01 2.41 2.3c.4.4 1.06.4 1.48 0a.98.98 0 0 0 0-1.4l-1.75-1.65 8.4-8.03zm-38.11-3.3v-22.82h38.11v23.3l-11.64-11.14a1.08 1.08 0 0 0-1.47 0l-9.12 8.75-6.22-5.95a1.13 1.13 0 0 0-1.47 0zm11.57-19.15c2.2 0 3.97 1.7 3.97 3.81a3.87 3.87 0 0 1-3.97 3.77 3.87 3.87 0 0 1-3.95-3.77 3.87 3.87 0 0 1 3.95-3.8zm-2.98-6.96l7.78-5.34a4.16 4.16 0 0 0 5.36 0l7.78 5.34zm10.46-9.87c.5 0 .98.17 1.32.49.33.35.55.77.55 1.27 0 .32-.1.62-.26.88v.01l-.01.01v.03c-.07.13-.19.23-.28.32-.34.35-.82.52-1.32.52-.52 0-.98-.17-1.33-.52-.1-.09-.2-.2-.27-.32v-.03l-.02-.02a1.8 1.8 0 0 1-.25-.88c0-.5.22-.92.54-1.27.35-.32.81-.5 1.33-.5z"/><filter id="8m6ac" width="200%" height="200%" x="-50%" y="-50%"><feGaussianBlur in="SourceGraphic" result="FeGaussianBlur1067Out" stdDeviation="0.5 0.5"/></filter><mask id="8m6ad"><use fill="#fff" xlink:href="#8m6aa"/></mask></defs><g><g transform="translate(-936 -6483)"><use fill="currentColor" xlink:href="#8m6aa"/><use fill-opacity=".35" stroke="#000" stroke-opacity=".35" stroke-width="0" filter="url(#8m6ac)" mask="url(&quot;#8m6ad&quot;)" xlink:href="#8m6ab"/></g></g></svg>
