<svg xmlns="http://www.w3.org/2000/svg" xmlns:xlink="http://www.w3.org/1999/xlink" width="55" height="69" viewBox="0 0 55 69"><defs><path id="8kxja" d="M955.43 6273.73c.7-.15 1.37.33 1.5 1.09.18.78-.3 1.5-.98 1.63-1.04.27-2.08.35-3.12.35-1.02 0-2.06-.08-3.09-.35-.7-.13-1.13-.85-1-1.63.13-.76.8-1.24 1.52-1.09a11.87 11.87 0 0 0 5.17 0zm-8.45-11.76c1.02 0 1.82.92 1.82 1.94 0 1.1-.8 1.98-1.82 1.98-1 0-1.8-.87-1.8-1.98 0-1.02.8-1.94 1.8-1.94zm11.71 0c1.01 0 1.8.92 1.8 1.94 0 1.1-.79 1.98-1.8 1.98-1 0-1.81-.87-1.81-1.98 0-1.02.8-1.94 1.81-1.94zm26.1-17.15a5.1 5.1 0 0 1 0 6.91 4.32 4.32 0 0 1-6.36 0 5.16 5.16 0 0 1-.96-5.44 7.8 7.8 0 0 0-2.28-.27 8.66 8.66 0 0 0-3.48.75 3.85 3.85 0 0 0-1.99 2c-.06.26-.12.46-.15.7a4.8 4.8 0 0 1 1.9 3.91 4.85 4.85 0 0 1-2.18 4.01c.51 3.09.65 4.31.4 7.38.34.73.61 1.55.81 2.41.96 3.86.66 9.1-1.23 14.08a23.98 23.98 0 0 1-15.8 14.87l-.09.03c-.34.08-.7.08-1.07 0a24.01 24.01 0 0 1-15.9-14.9c-1.9-4.97-2.19-10.22-1.24-14.08.2-.86.48-1.68.83-2.41-.25-3.07-.13-4.3.36-7.38a4.92 4.92 0 0 1-.88-.72 4.99 4.99 0 0 1 0-6.62 4.43 4.43 0 0 1 1.83-1.19c.52-5.58 2.66-9.8 5.73-12.82a19.46 19.46 0 0 1 10.8-5.23c4-.61 8.26-.17 12.25 1.24 5.68 2 10.78 6 13.71 11.76a4.27 4.27 0 0 1 4.98 1zm-19.48 34.67c1.51-4 1.79-8.14 1.05-11.12l-.06-.22c-2.5 1.47-5.2 2.6-7.22 3.45l-.08.03-.12.05c-.28.1-.58.14-.89.05a16.8 16.8 0 0 0-10.32 0 1.2 1.2 0 0 1-.83-.03l-.14-.07h-.03c-2-.85-4.76-1.97-7.3-3.48l-.04.22c-.75 2.98-.46 7.13 1.04 11.12a19.87 19.87 0 0 0 8.73 10.38c1.13.61 2.37 1.19 3.75 1.62 1.35-.43 2.6-1 3.74-1.62a19.84 19.84 0 0 0 8.72-10.38zm-.02-14.04c.39-3.09.25-4.36-.26-7.41h-24.39c-.52 3.05-.64 4.32-.24 7.4l.01.15a54.04 54.04 0 0 0 6.95 3.36c1.77-.55 3.64-.8 5.49-.8 1.84 0 3.7.25 5.48.8 1.37-.58 3.04-1.28 4.73-2.13.74-.37 1.5-.8 2.23-1.23zm3.07-10.76a1.94 1.94 0 0 0 0-2.68c-.29-.34-.74-.56-1.23-.56h-28.1c-.2.1-.39.13-.62.13a.93.93 0 0 1-.3-.06c-.31.1-.6.28-.8.5-.3.34-.52.8-.52 1.36a2 2 0 0 0 .52 1.3c.3.35.76.55 1.22.55h28.6c.49 0 .94-.2 1.23-.54zm6.83-11.42c.43 0 .86 0 1.32.05a22.27 22.27 0 0 0-11.22-8.62 22.97 22.97 0 0 0-11.12-1.12 16.95 16.95 0 0 0-9.4 4.5c-2.53 2.5-4.31 6-4.86 10.58h27.16c.07-.31.16-.62.27-.92v-.03a6.3 6.3 0 0 1 3.3-3.47c1.36-.68 3-.97 4.55-.97zm7.78 6.48c.35-.36.56-.92.56-1.48 0-.6-.21-1.1-.56-1.49-.36-.36-.84-.6-1.36-.6-.52 0-.98.2-1.32.55l-.06.05a2.23 2.23 0 0 0 0 2.97c.37.4.83.61 1.38.61.52 0 1-.21 1.36-.6z"/><path id="8kxjb" d="M933 6299v-71h55v71zm22.43-24.27a12.25 12.25 0 0 1-5.17 0c-.72-.15-1.39.33-1.52 1.09-.13.78.3 1.5 1 1.63 1.03.27 2.07.35 3.09.35 1.04 0 2.08-.08 3.12-.35.68-.13 1.16-.85.99-1.63-.14-.76-.81-1.24-1.51-1.09zm-10.25-9.82c0 1.1.8 1.98 1.8 1.98 1.02 0 1.82-.87 1.82-1.98 0-1.02-.8-1.94-1.82-1.94-1 0-1.8.92-1.8 1.94zm11.7 0c0 1.1.8 1.98 1.81 1.98s1.8-.87 1.8-1.98c0-1.02-.79-1.94-1.8-1.94-1 0-1.81.92-1.81 1.94zm27.9-19.1a4.27 4.27 0 0 0-4.98-1 24.36 24.36 0 0 0-13.71-11.76 25.58 25.58 0 0 0-12.25-1.24 19.46 19.46 0 0 0-10.8 5.23c-3.07 3.02-5.21 7.24-5.73 12.82-.7.25-1.34.65-1.83 1.19a4.93 4.93 0 0 0 .88 7.34c-.49 3.09-.6 4.31-.36 7.38-.35.73-.63 1.55-.83 2.41-.95 3.86-.65 9.1 1.24 14.08a24.01 24.01 0 0 0 15.9 14.9c.37.08.73.08 1.07 0l.1-.03a23.98 23.98 0 0 0 15.8-14.87c1.88-4.97 2.18-10.22 1.22-14.08-.2-.86-.47-1.68-.8-2.41.24-3.07.1-4.3-.4-7.38.33-.21.64-.44.88-.72a4.85 4.85 0 0 0 1.28-3.29 4.8 4.8 0 0 0-1.89-3.9c.03-.25.1-.45.15-.7a3.85 3.85 0 0 1 1.99-2.01 8.66 8.66 0 0 1 3.48-.75 7.8 7.8 0 0 1 2.28.27 5.16 5.16 0 0 0 .96 5.45 4.32 4.32 0 0 0 6.35 0 5.1 5.1 0 0 0 0-6.91zm-28.2 45.06c-1.12.61-2.38 1.19-3.73 1.62-1.38-.43-2.62-1-3.75-1.62a19.87 19.87 0 0 1-8.73-10.38c-1.5-4-1.8-8.14-1.04-11.12l.04-.22c2.54 1.5 5.3 2.63 7.3 3.48h.03l.14.07c.28.12.58.12.83.03a17.07 17.07 0 0 1 10.32 0c.3.09.61.05.89-.05l.12-.05.08-.03c2.03-.86 4.72-1.98 7.22-3.45l.06.22c.74 2.98.46 7.13-1.05 11.12a19.84 19.84 0 0 1-8.72 10.38zm8.71-24.28c-.73.43-1.5.86-2.23 1.23-1.7.85-3.36 1.55-4.73 2.13-1.77-.55-3.64-.8-5.48-.8-1.85 0-3.72.25-5.49.8a54.04 54.04 0 0 1-6.95-3.36l-.01-.14c-.4-3.09-.28-4.36.24-7.41h24.4c.5 3.05.64 4.32.25 7.4zm1.84-10.36h-28.6c-.46 0-.91-.2-1.22-.54a2 2 0 0 1-.52-1.3c0-.57.22-1.03.52-1.38.2-.21.49-.4.8-.5.09.04.2.07.3.07.23 0 .43-.03.61-.13h28.1c.5 0 .95.22 1.24.56a1.94 1.94 0 0 1 0 2.67c-.29.35-.74.55-1.23.55zm8.06-11.96c-1.56 0-3.2.3-4.55.97a6.3 6.3 0 0 0-3.3 3.47v.03c-.1.3-.2.61-.27.92H939.9c.55-4.58 2.33-8.08 4.85-10.57a16.95 16.95 0 0 1 9.41-4.51c3.64-.56 7.5-.16 11.12 1.12 4.46 1.59 8.51 4.5 11.22 8.62-.46-.05-.9-.05-1.32-.05zm6.42 7.1c-.55 0-1.01-.22-1.38-.62a2.23 2.23 0 0 1 0-2.97l.06-.05c.34-.34.8-.54 1.32-.54s1 .23 1.36.6c.35.37.56.88.56 1.48 0 .56-.21 1.12-.56 1.48-.36.4-.84.61-1.36.61z"/><filter id="8kxjc" width="200%" height="200%" x="-50%" y="-50%"><feGaussianBlur in="SourceGraphic" result="FeGaussianBlur1032Out" stdDeviation="0.5 0.5"/></filter><mask id="8kxjd"><use fill="#fff" xlink:href="#8kxja"/></mask></defs><g><g transform="translate(-933 -6229)"><use fill="currentColor" xlink:href="#8kxja"/><use fill-opacity=".35" stroke="#000" stroke-opacity=".35" stroke-width="0" filter="url(#8kxjc)" mask="url(&quot;#8kxjd&quot;)" xlink:href="#8kxjb"/></g></g></svg>
