<svg xmlns="http://www.w3.org/2000/svg" xmlns:xlink="http://www.w3.org/1999/xlink" width="67" height="68" viewBox="0 0 67 68"><defs><path id="abh9a" d="M550.03 6505.02a2.48 2.48 0 0 1 2.55 2.49 2.54 2.54 0 0 1-5.08 0 2.49 2.49 0 0 1 2.53-2.5zm31.11-7.07a2.52 2.52 0 0 1-2.55-2.53 2.5 2.5 0 0 1 2.55-2.45 2.48 2.48 0 1 1 0 4.98zm21.65 8.99a31.63 31.63 0 0 1-6.59 19.3l3.57 10.68a2.5 2.5 0 0 1-1.66 3.13c-.25.1-.5.13-.8.13h-53.66a2.53 2.53 0 0 1-2.52-2.5c0-.33.05-.63.18-.91l3.5-10.54a31.43 31.43 0 0 1-4.65-8.42 31.41 31.41 0 0 1 7.5-33.36 32.41 32.41 0 0 1 22.84-9.35c8.92 0 16.98 3.57 22.82 9.35a31.5 31.5 0 0 1 9.47 22.49zm-55.65 28.24h46.7l-2.64-7.94h-41.4zm44.23-11.05c1.01-1.19 1.91-2.45 2.7-3.76a3.25 3.25 0 0 0-2.41-.96c-.46 0-.9.07-1.3.25h-.03c-.4.18-.8.42-1.12.74l-.05.06a7.18 7.18 0 0 1-2.07 1.35 7.2 7.2 0 0 1-2.49.48c-.86 0-1.69-.2-2.48-.48v-.06a6.05 6.05 0 0 1-2.06-1.3l-.05-.05a4.3 4.3 0 0 0-1.06-.72l-.07-.02c-.4-.18-.83-.25-1.32-.25a3.51 3.51 0 0 0-2.47 1l-.03.05a6.4 6.4 0 0 1-1.98 1.28l-.08.01a6.1 6.1 0 0 1-5 0 6.67 6.67 0 0 1-2.1-1.35c-.31-.3-.67-.53-1.07-.72l-.07-.02c-.4-.18-.83-.25-1.3-.25a3.6 3.6 0 0 0-2.49 1l-.03.05c-.54.53-1.24.97-1.98 1.28l-.1.07c-.77.28-1.61.48-2.48.48-.86 0-1.73-.2-2.46-.48-.8-.34-1.5-.8-2.1-1.35l-.03-.06c-.32-.3-.67-.53-1.08-.72l-.07-.02c-.4-.18-.85-.25-1.32-.25-.45 0-.92.07-1.3.23l-.01.02c-.42.18-.77.4-1.08.7a23.9 23.9 0 0 0 2.63 3.67l.14.21h41.6zm4.72-8.03a26.64 26.64 0 0 0-6.34-28.12 27.32 27.32 0 0 0-19.25-7.9 27.3 27.3 0 0 0-19.25 7.9 26.54 26.54 0 0 0-5.73 29.62c.4-.25.83-.52 1.3-.68l.1-.07a6.67 6.67 0 0 1 4.9.07l.08.04c.76.28 1.42.74 1.98 1.28l.07.05c.3.34.69.57 1.1.76a4.05 4.05 0 0 0 2.65 0l.1-.03c.37-.2.73-.43 1.03-.73l.06-.05c.18-.18.32-.3.48-.41v-8.53c0-.82.7-1.51 1.53-1.51.83 0 1.5.7 1.5 1.51v7.2c.34-.08.7-.08 1.06-.08.86 0 1.7.16 2.49.5l.07.04c.74.28 1.4.74 1.96 1.28l.05.05c.35.34.73.57 1.16.76a3.86 3.86 0 0 0 2.63 0l.07-.03c.4-.2.76-.43 1.08-.73l.03-.05a5.95 5.95 0 0 1 2.06-1.32 6.24 6.24 0 0 1 3.53-.42v-7.2c0-.82.66-1.51 1.5-1.51s1.56.7 1.56 1.51v8.51c.16.14.36.32.5.48.33.34.72.57 1.16.76a3.83 3.83 0 0 0 2.63 0c.43-.2.79-.42 1.11-.76l.08-.05a5.62 5.62 0 0 1 2.05-1.32c.77-.34 1.62-.5 2.48-.5.89 0 1.73.16 2.49.5.47.16.93.43 1.33.68.22-.48.43-1 .61-1.5zm-24.53-22.2l13.64 13.43c.6.6.6 1.54 0 2.11-.6.59-1.53.59-2.16 0l-12.56-12.36-12.53 12.36c-.61.59-1.57.59-2.16 0a1.51 1.51 0 0 1 0-2.11l2.45-2.38v-10.6c0-.8.65-1.48 1.5-1.48h4.7c.82 0 1.5.67 1.5 1.49v2.95l3.46-3.41c.62-.6 1.57-.6 2.16 0zm-8.68 6.43v-4.48h-1.62v6.08zm2.63-11.94a2.53 2.53 0 0 1-2.52-2.54 2.5 2.5 0 0 1 2.52-2.49 2.5 2.5 0 0 1 2.52 2.49 2.53 2.53 0 0 1-2.52 2.54zm22.78 15.44a2.54 2.54 0 0 1 5.06 0 2.53 2.53 0 0 1-2.53 2.52 2.55 2.55 0 0 1-2.53-2.52zm-14.1 1.76c.83 0 1.5.67 1.5 1.52v7.25c0 .82-.67 1.48-1.5 1.48h-7.38a1.5 1.5 0 0 1-1.51-1.48v-7.25c0-.85.68-1.52 1.51-1.52zm-1.54 7.24v-4.24h-4.3v4.24z"/><path id="abh9b" d="M537 6543v-70h67v70zm10.5-34.5a2.54 2.54 0 1 0 5.08 0 2.48 2.48 0 0 0-2.55-2.48 2.49 2.49 0 0 0-2.53 2.49zm36.17-12.08a2.48 2.48 0 0 0-2.53-2.45 2.5 2.5 0 0 0-2.55 2.45 2.52 2.52 0 0 0 2.55 2.53 2.5 2.5 0 0 0 2.53-2.53zm9.65-10.97a32.33 32.33 0 0 0-22.82-9.35 32.41 32.41 0 0 0-22.83 9.35 31.41 31.41 0 0 0-7.51 33.36 31.43 31.43 0 0 0 4.64 8.42l-3.49 10.54c-.13.28-.18.58-.18.9 0 1.39 1.15 2.5 2.52 2.5h53.67c.29 0 .54-.03.8-.12a2.5 2.5 0 0 0 1.65-3.13l-3.57-10.69a31.63 31.63 0 0 0 6.6-19.3 31.5 31.5 0 0 0-9.48-22.48zm-43.53 42.8h41.4l2.65 7.93h-46.7zm41.51-3h-41.6l-.14-.22a23.9 23.9 0 0 1-2.63-3.66c.3-.3.66-.53 1.08-.71l.02-.02c.37-.16.84-.23 1.3-.23.46 0 .91.07 1.3.25l.08.02c.41.19.76.42 1.08.72l.04.06c.6.55 1.3 1 2.09 1.35.73.28 1.6.48 2.46.48.87 0 1.71-.2 2.49-.48l.09-.07c.74-.3 1.44-.75 1.98-1.28l.04-.06a3.6 3.6 0 0 1 2.48-.99c.47 0 .9.07 1.3.25l.07.02c.4.19.76.42 1.06.72.6.57 1.32 1.03 2.1 1.35a6.1 6.1 0 0 0 5 0l.09-.01a6.4 6.4 0 0 0 1.98-1.28l.03-.06a3.51 3.51 0 0 1 3.79-.74l.07.02c.4.19.74.42 1.06.72l.05.06a6.05 6.05 0 0 0 2.06 1.3v.05c.79.28 1.62.48 2.48.48.87 0 1.73-.2 2.49-.48.8-.34 1.48-.8 2.07-1.35l.05-.06c.33-.32.72-.56 1.12-.74h.04c.4-.18.83-.25 1.3-.25a3.25 3.25 0 0 1 2.4.96 28.9 28.9 0 0 1-2.7 3.76zm4.8-8.15c-.19.5-.4 1.02-.62 1.5-.4-.25-.86-.52-1.33-.68a6.1 6.1 0 0 0-2.49-.5c-.86 0-1.7.16-2.48.5-.8.29-1.48.75-2.05 1.32l-.08.05c-.32.34-.68.57-1.11.76a3.88 3.88 0 0 1-2.63 0c-.44-.2-.83-.42-1.16-.76a6.13 6.13 0 0 0-.5-.48v-8.51c0-.82-.72-1.51-1.57-1.51-.83 0-1.5.7-1.5 1.51v7.2c-.35-.08-.68-.08-1.02-.08-.88 0-1.73.16-2.5.5-.76.29-1.48.75-2.06 1.32l-.03.05c-.32.3-.68.53-1.08.73l-.07.03a3.94 3.94 0 0 1-2.63 0 3.8 3.8 0 0 1-1.16-.76l-.05-.05c-.56-.54-1.22-1-1.96-1.28l-.07-.04c-.8-.34-1.63-.5-2.49-.5-.36 0-.72 0-1.06.08v-7.2c0-.82-.67-1.51-1.5-1.51-.82 0-1.53.7-1.53 1.51v8.53c-.16.1-.3.23-.48.4l-.06.06c-.3.3-.66.53-1.02.73l-.11.03a3.86 3.86 0 0 1-2.65 0c-.41-.2-.8-.42-1.1-.76l-.07-.05c-.56-.54-1.22-1-1.98-1.28l-.07-.04a6.67 6.67 0 0 0-4.9-.07l-.11.07c-.47.16-.9.43-1.3.68a26.2 26.2 0 0 1-2.23-10.66c0-7.41 3.04-14.11 7.96-18.96a27.3 27.3 0 0 1 19.25-7.9c7.5 0 14.32 3.02 19.25 7.9a26.6 26.6 0 0 1 6.34 28.12zm-24.54-22.2c-.59-.6-1.54-.6-2.16 0l-3.45 3.4v-2.94c0-.82-.69-1.5-1.52-1.5h-4.7c-.84 0-1.5.68-1.5 1.5v10.59l-2.44 2.38c-.58.6-.58 1.54 0 2.11.6.59 1.55.59 2.16 0l12.53-12.36 12.56 12.36c.63.59 1.56.59 2.16 0 .6-.57.6-1.5 0-2.11l-13.64-13.43zm-10.3 8.03v-6.08h1.62v4.48zm6.77-16.08a2.5 2.5 0 0 0-2.52-2.49 2.5 2.5 0 0 0-2.52 2.49 2.53 2.53 0 0 0 2.52 2.54c1.4 0 2.52-1.16 2.52-2.54zm22.79 20.5c1.4 0 2.53-1.14 2.53-2.52a2.54 2.54 0 0 0-5.06 0 2.55 2.55 0 0 0 2.53 2.52zm-24.01-.76c-.83 0-1.51.67-1.51 1.52v7.25c0 .82.68 1.48 1.51 1.48h7.38c.83 0 1.5-.66 1.5-1.48v-7.25a1.5 1.5 0 0 0-1.5-1.52zm1.53 7.24v-4.24h4.3v4.24z"/><filter id="abh9c" width="200%" height="200%" x="-50%" y="-50%"><feGaussianBlur in="SourceGraphic" result="FeGaussianBlur1081Out" stdDeviation="0.5 0.5"/></filter><mask id="abh9d"><use fill="#fff" xlink:href="#abh9a"/></mask></defs><g><g transform="translate(-537 -6474)"><use fill="#be8739" xlink:href="#abh9a"/><use fill-opacity=".35" stroke="#000" stroke-opacity=".35" stroke-width="0" filter="url(#abh9c)" mask="url(&quot;#abh9d&quot;)" xlink:href="#abh9b"/></g></g></svg>