<svg xmlns="http://www.w3.org/2000/svg" xmlns:xlink="http://www.w3.org/1999/xlink" width="61" height="68" viewBox="0 0 61 68"><defs><path id="69b5a" d="M581.4 6248.6c1.02.7 1.37 2.05 1.26 3.19l-2.67 16.68c-.1.97-.4 1.95-.8 2.87a10.25 10.25 0 0 1-7.68 5.82c-.35.06-.68.1-1 .12-.24.02-.55.02-.87.02h-.1c-.28 0-.6-.03-.9-.06l-.1-.02a9.34 9.34 0 0 1-1.97-.44c-2.97-.98-5.3-3.2-6.4-6.03-.1-.34-.2-.66-.3-.94l-.19-.93a10.4 10.4 0 0 1 1.78-7.6l.66-.8c.23-.21.43-.44.67-.65l.03-.06c.26-.22.51-.42.78-.62l13.27-10.54a.65.65 0 0 1 .22-.17l.35-.2c.82-.5 1.79-.5 2.66-.29.1.02.2.03.27.08l.43.2c.06.03.16.06.22.11zm-4.06 19.47l2.67-16.61c.01-.89-.78-1.23-1.5-.8l-13.26 10.55-.03.03-.56.46-.06.07a7.46 7.46 0 0 0-2.28 6.67c.03.2.1.44.14.69.08.25.14.5.24.68.06.22.16.44.28.66.03.05.33.65.35.65a7.58 7.58 0 0 0 2.68 2.56c.25.13.5.25.68.31.25.16.48.22.71.3.24.05.46.14.72.2.25.05.49.1.76.13h.06c.2.03.43.03.67.04l.08.02.65-.03a10.32 10.32 0 0 0 1.42-.22 7.64 7.64 0 0 0 5.58-6.3zm14.5-19.43c4.37 4.97 7 11.47 7 18.55 0 7.9-3.26 15.04-8.51 20.2l-.11.14a29.29 29.29 0 0 1-20.42 8.23c-8 0-15.27-3.2-20.53-8.37a28.24 28.24 0 0 1 0-40.37v-.02c4.8-4.7 11.2-7.75 18.3-8.28v-3.35h-2.6a2.2 2.2 0 0 1-2.21-2.2c0-1.22.98-2.22 2.22-2.22h9.65c1.22 0 2.24 1 2.24 2.22 0 1.21-1.02 2.2-2.24 2.2h-2.6v3.35a29.08 29.08 0 0 1 16.67 6.78l2.5-2.44a2.25 2.25 0 0 1 3.17 0c.86.84.86 2.24 0 3.08zm-4.67 35.64a23.79 23.79 0 0 0 7.2-17.09 23.8 23.8 0 0 0-7.1-16.98l-.1-.1a24.74 24.74 0 0 0-17.37-7.09 24.58 24.58 0 0 0-17.35 7.08h-.03a23.82 23.82 0 0 0 .03 34.18h-.03l.03.02a24.51 24.51 0 0 0 17.35 7.06 24.7 24.7 0 0 0 17.28-6.97zm-14.9-21.26a4.87 4.87 0 0 1 1.8 6.6 5.01 5.01 0 0 1-6.71 1.75 4.8 4.8 0 0 1-1.81-6.58 5.03 5.03 0 0 1 6.72-1.77zm-.54 5.26a2.15 2.15 0 0 0-.8-2.97 2.29 2.29 0 0 0-3.07.8 2.2 2.2 0 0 0 .83 2.99c1.06.6 2.44.25 3.04-.82z"/><path id="69b5b" d="M539 6298v-70h61v70zm42.02-48.66c-.06-.05-.16-.08-.22-.1l-.43-.21c-.08-.05-.17-.06-.27-.08-.87-.2-1.84-.2-2.66.28l-.35.2c-.1.05-.17.11-.22.18l-13.27 10.54c-.27.2-.52.4-.78.62l-.03.06c-.24.2-.44.44-.67.66l-.66.78a10.4 10.4 0 0 0-1.9 6.64c.03.3.06.63.12.97l.2.93c.09.28.18.6.3.94a10.27 10.27 0 0 0 8.35 6.47l.11.02c.3.03.62.06.9.06h.1c.32 0 .63 0 .87-.02.32-.03.65-.06 1-.12a10.25 10.25 0 0 0 7.67-5.82c.42-.92.7-1.9.81-2.87l2.67-16.68c.1-1.14-.24-2.5-1.26-3.18zm-3.68 19.79a7.48 7.48 0 0 1-7 6.52l-.65.03-.08-.02c-.24-.01-.48-.01-.67-.04h-.06c-.27-.03-.5-.08-.76-.13-.26-.06-.48-.15-.72-.2-.23-.08-.46-.14-.7-.3-.2-.06-.44-.18-.69-.31a7.58 7.58 0 0 1-2.68-2.56c-.02 0-.32-.6-.35-.65a2.93 2.93 0 0 1-.28-.66c-.1-.18-.16-.43-.24-.68-.05-.25-.11-.49-.14-.69a7.46 7.46 0 0 1 2.28-6.68l.06-.06c.18-.17.38-.3.56-.46l.03-.03 13.27-10.55c.71-.43 1.5-.09 1.49.8l-2.67 16.6zm17.03-21.99c.86-.84.86-2.24 0-3.08a2.25 2.25 0 0 0-3.17 0l-2.5 2.44a29.08 29.08 0 0 0-16.67-6.78v-3.35h2.6c1.22 0 2.24-.99 2.24-2.2a2.24 2.24 0 0 0-2.24-2.22h-9.65c-1.24 0-2.22 1-2.22 2.22 0 1.21.98 2.2 2.22 2.2h2.6v3.35c-7.1.53-13.5 3.59-18.31 8.28v.02a28.23 28.23 0 0 0 0 40.37 29.2 29.2 0 0 0 20.53 8.37c7.94 0 15.17-3.15 20.42-8.23l.1-.14a28.25 28.25 0 0 0 8.52-20.2c0-7.08-2.63-13.58-7-18.55zm-7.3 38.25a24.7 24.7 0 0 1-17.27 6.97 24.51 24.51 0 0 1-17.35-7.06l-.03-.02h.03a23.82 23.82 0 0 1-.03-34.18h.03a24.58 24.58 0 0 1 17.35-7.08c6.78 0 12.92 2.72 17.37 7.08l.1.11a23.8 23.8 0 0 1 7.1 16.98c0 6.68-2.73 12.73-7.2 17.1zm-14.8-21.37a5.03 5.03 0 0 0-6.72 1.77 4.8 4.8 0 0 0 1.8 6.58 5.01 5.01 0 0 0 6.73-1.74c1.31-2.31.5-5.27-1.8-6.61zm-.54 5.26a2.23 2.23 0 0 1-3.04.82 2.2 2.2 0 0 1-.83-3c.64-1.03 2-1.4 3.06-.8 1.07.62 1.43 1.92.81 2.98z"/><filter id="69b5c" width="200%" height="200%" x="-50%" y="-50%"><feGaussianBlur in="SourceGraphic" result="FeGaussianBlur1018Out" stdDeviation="0.5 0.5"/></filter><mask id="69b5d"><use fill="#fff" xlink:href="#69b5a"/></mask></defs><g><g transform="translate(-539 -6229)"><use fill="currentColor" xlink:href="#69b5a"/><use fill-opacity=".35" stroke="#000" stroke-opacity=".35" stroke-width="0" filter="url(#69b5c)" mask="url(&quot;#69b5d&quot;)" xlink:href="#69b5b"/></g></g></svg>
